<?xml version="1.0" encoding="utf-8"?>
<!-- Generator: Adobe Illustrator 21.0.0, SVG Export Plug-In . SVG Version: 6.00 Build 0)  -->
<svg version="1.1" id="Layer_1" xmlns="http://www.w3.org/2000/svg" xmlns:xlink="http://www.w3.org/1999/xlink" x="0px" y="0px"
	 viewBox="0 0 405 405.1" style="enable-background:new 0 0 405 405.1;" xml:space="preserve">
<style type="text/css">
	.st0{fill:#E6E9ED;}
	.st1{fill:#656D78;}
	.st2{fill:#ED5564;}
	.st3{fill:#FFCE54;}
	.st4{fill:#A0D468;}
	.st5{fill:#FC6E51;}
	.st6{fill:#AC92EB;}
	.st7{fill:#48CFAD;}
	.st8{fill:#5D9CEC;}
	.st9{fill:#DA4453;}
</style>
<path class="st0" d="M371.3,109.7V67.5c0-9.3-7.6-16.9-16.9-16.9H16.9C7.6,50.6,0,58.1,0,67.5v42.2H371.3z"/>
<polygon class="st1" points="313.4,337.5 301.8,337.5 0,337.5 0,84.3 371.3,84.3 371.3,261 "/>
<path class="st2" d="M33.7,67.5c0,4.7-3.7,8.5-8.4,8.5s-8.4-3.8-8.4-8.4s3.7-8.5,8.4-8.5S33.7,62.8,33.7,67.5z"/>
<path class="st3" d="M59.1,67.5c0,4.7-3.7,8.5-8.4,8.5s-8.4-3.8-8.4-8.4s3.8-8.5,8.4-8.5S59.1,62.8,59.1,67.5z"/>
<path class="st4" d="M84.4,67.5c0,4.7-3.8,8.4-8.5,8.4s-8.4-3.8-8.4-8.4s3.8-8.5,8.4-8.5C80.6,59.1,84.4,62.8,84.4,67.5z"/>
<path class="st5" d="M295.4,118.2H42.2c-4.7,0-8.5,3.8-8.5,8.5c0,4.7,3.8,8.5,8.5,8.5h253.2c4.7,0,8.4-3.8,8.4-8.5
	C303.8,121.9,300,118.2,295.4,118.2z"/>
<path class="st6" d="M42.2,168.7h135c4.7,0,8.5-3.8,8.5-8.5s-3.8-8.5-8.5-8.5h-135c-4.7,0-8.5,3.8-8.5,8.5
	C33.7,165,37.5,168.7,42.2,168.7z"/>
<path class="st7" d="M227.8,185.6H42.2c-4.7,0-8.5,3.8-8.5,8.5s3.8,8.4,8.5,8.4h185.6c4.7,0,8.4-3.8,8.4-8.4
	S232.5,185.6,227.8,185.6z"/>
<path class="st8" d="M42.2,236.3h118.1c4.7,0,8.5-3.8,8.5-8.5s-3.8-8.4-8.5-8.4H42.2c-4.7,0-8.5,3.8-8.5,8.4S37.5,236.3,42.2,236.3z
	"/>
<g>
	<path class="st3" d="M243.5,273.2c3.4,0,6.6-2.1,7.9-5.5c1.7-4.4-0.6-9.3-4.9-10.8c-16.2-6.1-18.8-21.7-18.8-21.8
		c-0.7-4.6-5-7.8-9.6-7.1s-7.8,5-7.1,9.6c0.2,1,4,25.6,29.5,35.1C241.5,273,242.6,273.2,243.5,273.2z"/>
	<path class="st3" d="M379.7,371.2c0.4,0,0.8,0,1.3-0.1c4.6-0.7,7.8-5,7.1-9.6c-0.2-1-4-25.6-29.5-35.1c-4.4-1.7-9.2,0.6-10.8,4.9
		c-1.7,4.4,0.6,9.3,4.9,10.8c16.2,6.1,18.8,21.7,18.8,21.8C371.9,368.2,375.6,371.2,379.7,371.2z"/>
	<path class="st3" d="M177.2,253.1h-135c-4.7,0-8.5,3.8-8.5,8.5s3.8,8.5,8.5,8.5h135c4.7,0,8.5-3.8,8.5-8.5S181.8,253.1,177.2,253.1
		z"/>
</g>
<path class="st2" d="M109.7,286.8H42.2c-4.7,0-8.5,3.8-8.5,8.5s3.8,8.4,8.5,8.4h67.5c4.7,0,8.5-3.8,8.5-8.4
	C118.1,290.6,114.3,286.8,109.7,286.8z"/>
<g>
	<path class="st3" d="M396.6,303.7H211c-4.7,0-8.4-3.8-8.4-8.4c0-4.7,3.8-8.5,8.4-8.5h185.6c4.7,0,8.4,3.8,8.4,8.5
		S401.2,303.7,396.6,303.7z"/>
	<path class="st3" d="M287,228.2c-2.8,0-5.7-1.5-7.2-4.1l-25.5-42.5c-2.4-4-1.1-9.2,2.9-11.6c4-2.4,9.2-1.1,11.6,2.9l25.5,42.5
		c2.4,4,1.1,9.2-2.9,11.6C290,227.8,288.5,228.2,287,228.2z"/>
	<path class="st3" d="M320.5,228.2c-1.4,0-2.9-0.4-4.4-1.2c-4-2.4-5.3-7.6-2.9-11.6l25.5-42.5c2.4-4,7.6-5.3,11.6-2.9
		c4,2.4,5.3,7.6,2.9,11.6l-25.5,42.5C326.2,226.7,323.4,228.2,320.5,228.2z"/>
	<path class="st3" d="M364,273.2c-3.4,0-6.6-2.1-7.9-5.5c-1.7-4.4,0.6-9.3,4.9-10.8c16.2-6.1,18.8-21.7,18.8-21.8
		c0.6-4.6,5-7.8,9.6-7.1s7.8,5,7.1,9.6c-0.2,1-4,25.6-29.5,35.1C366,273,365,273.2,364,273.2z"/>
	<path class="st3" d="M227.8,371.2c-0.4,0-0.8,0-1.3-0.1c-4.6-0.7-7.8-5-7.1-9.6c0.2-1,4-25.6,29.5-35.1c4.4-1.7,9.3,0.6,10.8,4.9
		c1.7,4.4-0.6,9.3-4.9,10.8c-16.2,6.1-18.7,21.7-18.8,21.8C235.6,368.2,231.9,371.2,227.8,371.2z"/>
</g>
<path class="st2" d="M371.2,278.5c0,51.3-19.3,92.9-67.4,92.9c-48.2,0-67.4-41.6-67.4-92.9c0-51.2,25.1-75.9,67.4-75.9
	C346.1,202.5,371.2,227.2,371.2,278.5z"/>
<g>
	<path class="st9" d="M295.4,370.8c2.7,0.3,5.5,0.5,8.4,0.5s5.7-0.2,8.4-0.5V253.1h-16.9L295.4,370.8L295.4,370.8z"/>
	<path class="st9" d="M238.8,253.1h130c-7.2-34.1-30.3-50.6-65-50.6S246,219,238.8,253.1z"/>
</g>
</svg>
