<?xml version="1.0" encoding="utf-8"?>
<!-- Generator: Adobe Illustrator 21.0.0, SVG Export Plug-In . SVG Version: 6.00 Build 0)  -->
<svg version="1.1" id="Layer_1" xmlns="http://www.w3.org/2000/svg" xmlns:xlink="http://www.w3.org/1999/xlink" x="0px" y="0px"
	 viewBox="0 0 405 405" style="enable-background:new 0 0 405 405;" xml:space="preserve">
<style type="text/css">
	.st0{fill:#CCD1D9;}
	.st1{fill:#434A54;}
	.st2{fill:#AC92EB;}
	.st3{fill:#E6E9ED;}
	.st4{fill:#A0D468;}
	.st5{fill:#8CC153;}
</style>
<g id="virus_scan">
	<polygon class="st0" points="309.5,285.6 285.6,309.5 202.1,225.9 225.9,202.1 	"/>
	<path class="st1" d="M279.6,315.4l82.2,82.2c9.9,9.9,25.9,9.9,35.8,0s9.9-25.9,0-35.8l0,0l-82.2-82.2L279.6,315.4z"/>
	<path class="st2" d="M160.3,312.2c-40.6,0-78.7-15.8-107.4-44.5C24.3,239,8.5,200.9,8.5,160.3S24.3,81.6,52.9,52.9
		C81.6,24.2,119.8,8.4,160.3,8.4l0,0c40.6,0,78.7,15.8,107.4,44.5c28.7,28.7,44.5,66.8,44.5,107.4s-15.8,78.7-44.5,107.4
		C239,296.4,200.9,312.2,160.3,312.2L160.3,312.2z"/>
	<path class="st3" d="M160.3,0C71.8,0,0,71.8,0,160.3s71.8,160.3,160.3,160.3c88.5,0,160.3-71.8,160.3-160.3
		C320.6,71.8,248.9,0,160.3,0z M261.8,261.7c-13.2,13.2-28.5,23.5-45.6,30.7c-17.7,7.5-36.5,11.3-55.8,11.3
		c-19.4,0-38.1-3.8-55.8-11.3c-17.1-7.2-32.4-17.6-45.6-30.7s-23.5-28.5-30.7-45.6c-7.5-17.7-11.3-36.5-11.3-55.8
		s3.8-38.1,11.3-55.8c7.2-17.1,17.6-32.4,30.7-45.6s28.5-23.5,45.6-30.7c17.7-7.5,36.5-11.3,55.8-11.3l0,0
		c19.4,0,38.2,3.8,55.8,11.3c17.1,7.2,32.4,17.6,45.6,30.7c13.2,13.2,23.5,28.5,30.7,45.6c7.5,17.7,11.3,36.5,11.3,55.8
		c0,19.4-3.8,38.2-11.3,55.8C285.3,233.2,274.9,248.6,261.8,261.7z"/>
	<g>
		<path class="st1" d="M253.2,168.8L253.2,168.8H67.5h0c-4.7,0-8.4,3.8-8.4,8.4s3.8,8.4,8.4,8.4l0,0h185.6l0,0l0,0
			c4.7,0,8.4-3.8,8.4-8.4S257.8,168.8,253.2,168.8z"/>
		<path class="st1" d="M110.9,63.4l25.5,42.5l14.5-8.7l-25.5-42.5h0c-1.5-2.4-4.2-4.1-7.2-4.1c-4.7,0-8.4,3.8-8.4,8.4
			C109.7,60.7,110.1,62.1,110.9,63.4L110.9,63.4z"/>
		<path class="st1" d="M209.8,63.4L209.8,63.4c0.7-1.3,1.2-2.7,1.2-4.3c0-4.7-3.8-8.4-8.4-8.4c-3.1,0-5.8,1.6-7.2,4.1h0l-25.5,42.5
			l14.5,8.7L209.8,63.4z"/>
		<path class="st1" d="M67.6,119.4c0.1,1,4.1,25.6,29.5,35.2l5.9-15.8c-16-6-18.7-21.2-18.8-21.9l0,0.1h0c-0.6-4.1-4.1-7.2-8.3-7.2
			c-4.7,0-8.4,3.8-8.4,8.4C67.5,118.5,67.5,119,67.6,119.4L67.6,119.4L67.6,119.4z"/>
		<path class="st1" d="M253.1,119.4L253.1,119.4c0-0.4,0.1-0.8,0.1-1.2c0-4.7-3.8-8.4-8.4-8.4c-4.2,0-7.7,3.1-8.3,7.2l0,0
			c0,0.1-2.5,15.7-18.8,21.8l5.9,15.8C249,145,252.9,120.4,253.1,119.4z"/>
		<path class="st1" d="M244.6,243.5c-0.2-1.1-4.1-25.6-29.5-35.2l-5.9,15.8c16,6,18.7,21.2,18.8,21.9l0-0.1h0
			c0.6,4.1,4.1,7.2,8.3,7.2c4.7,0,8.4-3.8,8.4-8.4C244.7,244.3,244.7,243.9,244.6,243.5L244.6,243.5L244.6,243.5z"/>
		<path class="st1" d="M76,243.5L76,243.5c0,0.4-0.1,0.8-0.1,1.2c0,4.7,3.8,8.4,8.4,8.4c4.2,0,7.7-3.1,8.3-7.2h0
			c0-0.2,2.5-15.7,18.7-21.8l-5.9-15.8C80.1,217.9,76.2,242.4,76,243.5z"/>
	</g>
	<g>
		<path class="st4" d="M227.8,160.3c0,51.3-19.3,92.8-67.5,92.8s-67.4-41.6-67.4-92.8s25.1-75.9,67.4-75.9
			C202.7,84.4,227.8,109.1,227.8,160.3z"/>
	</g>
	<path class="st5" d="M223.1,126.6H97.5c-1.6,5.1-2.9,10.8-3.6,16.9h58v109.2c2.7,0.3,5.5,0.5,8.4,0.5c2.9,0,5.7-0.1,8.4-0.5V143.4
		h58C226,137.3,224.8,131.7,223.1,126.6z"/>
</g>
</svg>
